<?xml version="1.0" standalone="no"?>
<!DOCTYPE svg PUBLIC "-//W3C//DTD SVG 20010904//EN"
 "http://www.w3.org/TR/2001/REC-SVG-20010904/DTD/svg10.dtd">
<svg version="1.0" xmlns="http://www.w3.org/2000/svg"
 width="132.000000pt" height="132.000000pt" viewBox="0 0 132.000000 132.000000"
 preserveAspectRatio="xMidYMid meet">

<g transform="translate(0.000000,132.000000) scale(0.100000,-0.100000)"
fill="#000000" stroke="none">
<path d="M465 1265 c-148 -50 -245 -120 -330 -239 -77 -109 -115 -228 -115
-368 0 -117 14 -176 66 -286 78 -163 214 -278 394 -334 109 -34 263 -32 376 5
260 86 438 331 450 620 1 37 -2 67 -7 67 -5 0 -9 11 -9 24 0 42 -48 179 -81
231 -86 136 -212 238 -342 276 -40 11 -79 23 -87 26 -8 2 -62 5 -120 6 -93 2
-115 -1 -195 -28z m437 -577 c81 -127 145 -235 142 -239 -3 -5 -50 -9 -104 -9
l-99 0 -16 30 c-8 16 -24 34 -34 40 -11 5 -76 10 -145 10 l-126 0 -26 -40 -27
-40 -98 0 c-54 0 -100 4 -103 8 -4 7 81 145 240 390 l54 82 97 0 98 -1 147
-231z"/>
<path d="M634 729 c-9 -19 -24 -44 -32 -56 l-14 -23 67 0 67 0 -27 48 c-39 67
-41 68 -61 31z"/>
</g>
</svg>
