<svg data-v-423bf9ae="" xmlns="http://www.w3.org/2000/svg" viewBox="0 0 640.9638161432464 193" class="fontAboveSlogan"><!----><!----><!----><g data-v-423bf9ae="" id="8c5457cb-606d-4b1a-b47d-ade61ac14e4e" fill="white" transform="matrix(9.63855362621423,0,0,9.63855362621423,-0.08660689239491148,-22.041441928782717)"><path d="M3.62 4.71L4.63 4.71L4.63 4.71Q4.76 4.71 4.85 4.74L4.85 4.74L4.85 4.74Q4.94 4.77 5.01 4.85L5.01 4.85L5.01 4.85Q5.08 4.92 5.14 5.04L5.14 5.04L5.14 5.04Q5.20 5.17 5.27 5.35L5.27 5.35L8.41 13.73L8.41 13.73Q8.44 13.82 8.46 13.90L8.46 13.90L8.46 13.90Q8.47 13.97 8.47 14.05L8.47 14.05L8.47 14.05Q8.47 14.29 8.32 14.41L8.32 14.41L8.32 14.41Q8.18 14.53 8.01 14.53L8.01 14.53L4.14 14.53L4.14 14.53Q3.96 14.53 3.84 14.48L3.84 14.48L3.84 14.48Q3.72 14.44 3.64 14.38L3.64 14.38L3.64 14.38Q3.55 14.31 3.51 14.25L3.51 14.25L3.51 14.25Q3.47 14.18 3.45 14.12L3.45 14.12L3.38 13.88L1.46 13.88L1.41 14.09L1.41 14.09Q1.39 14.19 1.36 14.27L1.36 14.27L1.36 14.27Q1.33 14.35 1.29 14.41L1.29 14.41L1.29 14.41Q1.25 14.46 1.18 14.50L1.18 14.50L1.18 14.50Q1.11 14.53 0.99 14.53L0.99 14.53L0.29 14.53L0.29 14.53Q0.07 14.53 0.07 14.36L0.07 14.36L0.07 14.36Q0.07 14.29 0.09 14.21L0.09 14.21L0.09 14.21Q0.12 14.12 0.16 14.01L0.16 14.01L3.01 5.36L3.01 5.36Q3.12 5.04 3.25 4.88L3.25 4.88L3.25 4.88Q3.38 4.72 3.62 4.71L3.62 4.71ZM2.39 10.37L1.67 13.04L3.14 13.04L2.39 10.37ZM12.99 14.66L12.99 14.66L12.99 14.66Q12.09 14.66 11.38 14.42L11.38 14.42L11.38 14.42Q10.67 14.18 10.18 13.73L10.18 13.73L10.18 13.73Q9.69 13.28 9.43 12.61L9.43 12.61L9.43 12.61Q9.17 11.94 9.17 11.07L9.17 11.07L9.17 4.27L9.17 4.27Q9.17 4.03 9.21 3.85L9.21 3.85L9.21 3.85Q9.25 3.67 9.37 3.55L9.37 3.55L9.37 3.55Q9.48 3.44 9.69 3.38L9.69 3.38L9.69 3.38Q9.89 3.32 10.22 3.32L10.22 3.32L13.21 3.32L13.21 3.32Q13.51 3.32 13.70 3.38L13.70 3.38L13.70 3.38Q13.89 3.44 14.00 3.56L14.00 3.56L14.00 3.56Q14.12 3.68 14.16 3.86L14.16 3.86L14.16 3.86Q14.21 4.04 14.21 4.29L14.21 4.29L14.21 7.53L14.21 7.53Q14.81 7.64 15.35 7.88L15.35 7.88L15.35 7.88Q15.89 8.12 16.30 8.54L16.30 8.54L16.30 8.54Q16.71 8.96 16.95 9.58L16.95 9.58L16.95 9.58Q17.19 10.19 17.19 11.05L17.19 11.05L17.19 11.05Q17.19 11.77 17.02 12.31L17.02 12.31L17.02 12.31Q16.86 12.86 16.56 13.26L16.56 13.26L16.56 13.26Q16.26 13.67 15.86 13.93L15.86 13.93L15.86 13.93Q15.46 14.20 14.99 14.36L14.99 14.36L14.99 14.36Q14.53 14.53 14.01 14.59L14.01 14.59L14.01 14.59Q13.50 14.66 12.99 14.66ZM14.21 8.40L14.21 13.69L14.21 13.69Q14.74 13.62 15.12 13.40L15.12 13.40L15.12 13.40Q15.50 13.18 15.75 12.83L15.75 12.83L15.75 12.83Q15.99 12.48 16.11 12.03L16.11 12.03L16.11 12.03Q16.22 11.58 16.22 11.05L16.22 11.05L16.22 11.05Q16.22 10.53 16.11 10.08L16.11 10.08L16.11 10.08Q15.99 9.62 15.74 9.27L15.74 9.27L15.74 9.27Q15.50 8.92 15.12 8.70L15.12 8.70L15.12 8.70Q14.74 8.47 14.21 8.40L14.21 8.40ZM23.22 4.28L23.22 7.66L23.22 7.66Q23.37 7.54 23.58 7.46L23.58 7.46L23.58 7.46Q23.80 7.39 24.05 7.39L24.05 7.39L24.05 7.39Q24.71 7.39 25.07 7.84L25.07 7.84L25.07 7.84Q25.44 8.29 25.44 9.17L25.44 9.17L25.44 14.21L25.44 14.21Q25.44 14.32 25.41 14.39L25.41 14.39L25.41 14.39Q25.38 14.45 25.33 14.48L25.33 14.48L25.33 14.48Q25.29 14.51 25.22 14.52L25.22 14.52L25.22 14.52Q25.16 14.53 25.10 14.53L25.10 14.53L24.66 14.53L24.66 14.53Q24.49 14.53 24.44 14.42L24.44 14.42L24.44 14.42Q24.38 14.32 24.38 14.21L24.38 14.21L24.38 9.10L24.38 9.10Q24.38 8.71 24.24 8.50L24.24 8.50L24.24 8.50Q24.10 8.30 23.80 8.30L23.80 8.30L23.80 8.30Q23.64 8.30 23.48 8.38L23.48 8.38L23.48 8.38Q23.32 8.47 23.22 8.57L23.22 8.57L23.22 13.57L23.22 13.57Q23.22 13.81 23.19 13.99L23.19 13.99L23.19 13.99Q23.17 14.16 23.06 14.28L23.06 14.28L23.06 14.28Q22.96 14.40 22.77 14.46L22.77 14.46L22.77 14.46Q22.58 14.53 22.25 14.53L22.25 14.53L19.09 14.53L19.09 14.53Q18.82 14.53 18.65 14.46L18.65 14.46L18.65 14.46Q18.47 14.40 18.37 14.29L18.37 14.29L18.37 14.29Q18.27 14.17 18.22 13.99L18.22 13.99L18.22 13.99Q18.18 13.82 18.18 13.58L18.18 13.58L18.18 4.28L18.18 4.28Q18.18 4.05 18.22 3.87L18.22 3.87L18.22 3.87Q18.27 3.68 18.38 3.57L18.38 3.57L18.38 3.57Q18.50 3.45 18.70 3.39L18.70 3.39L18.70 3.39Q18.91 3.33 19.24 3.33L19.24 3.33L22.23 3.33L22.23 3.33Q22.54 3.33 22.73 3.38L22.73 3.38L22.73 3.38Q22.93 3.44 23.04 3.56L23.04 3.56L23.04 3.56Q23.15 3.68 23.18 3.86L23.18 3.86L23.18 3.86Q23.22 4.03 23.22 4.28L23.22 4.28ZM26.69 13.58L26.69 8.48L26.69 8.48Q26.69 8.24 26.74 8.06L26.74 8.06L26.74 8.06Q26.78 7.88 26.89 7.77L26.89 7.77L26.89 7.77Q27.01 7.65 27.21 7.59L27.21 7.59L27.21 7.59Q27.42 7.53 27.75 7.53L27.75 7.53L30.74 7.53L30.74 7.53Q31.06 7.53 31.25 7.58L31.25 7.58L31.25 7.58Q31.45 7.64 31.55 7.76L31.55 7.76L31.55 7.76Q31.66 7.88 31.70 8.05L31.70 8.05L31.70 8.05Q31.73 8.23 31.73 8.48L31.73 8.48L31.73 13.59L31.73 13.59Q31.73 13.82 31.70 14.00L31.70 14.00L31.70 14.00Q31.66 14.17 31.55 14.29L31.55 14.29L31.55 14.29Q31.45 14.41 31.25 14.47L31.25 14.47L31.25 14.47Q31.06 14.53 30.74 14.53L30.74 14.53L27.75 14.53L27.75 14.53Q27.42 14.53 27.21 14.46L27.21 14.46L27.21 14.46Q27.01 14.40 26.89 14.29L26.89 14.29L26.89 14.29Q26.78 14.17 26.74 13.99L26.74 13.99L26.74 13.99Q26.69 13.82 26.69 13.58L26.69 13.58ZM26.95 4.60L26.95 4.60L26.95 4.60Q26.95 4.13 27.13 3.71L27.13 3.71L27.13 3.71Q27.31 3.29 27.62 2.99L27.62 2.99L27.62 2.99Q27.92 2.68 28.34 2.50L28.34 2.50L28.34 2.50Q28.76 2.32 29.23 2.32L29.23 2.32L29.23 2.32Q29.70 2.32 30.11 2.50L30.11 2.50L30.11 2.50Q30.52 2.68 30.83 2.99L30.83 2.99L30.83 2.99Q31.14 3.29 31.32 3.71L31.32 3.71L31.32 3.71Q31.50 4.13 31.50 4.60L31.50 4.60L31.50 4.60Q31.50 5.07 31.32 5.48L31.32 5.48L31.32 5.48Q31.14 5.89 30.83 6.20L30.83 6.20L30.83 6.20Q30.52 6.51 30.11 6.69L30.11 6.69L30.11 6.69Q29.70 6.87 29.23 6.87L29.23 6.87L29.23 6.87Q28.76 6.87 28.34 6.69L28.34 6.69L28.34 6.69Q27.92 6.51 27.62 6.20L27.62 6.20L27.62 6.20Q27.31 5.89 27.13 5.48L27.13 5.48L27.13 5.48Q26.95 5.07 26.95 4.60ZM37.86 7.29L37.86 7.29L37.86 7.29Q38.30 7.29 38.74 7.34L38.74 7.34L38.74 7.34Q39.18 7.39 39.57 7.47L39.57 7.47L39.57 7.47Q39.96 7.55 40.29 7.65L40.29 7.65L40.29 7.65Q40.61 7.75 40.82 7.85L40.82 7.85L40.82 7.85Q40.85 7.86 40.89 7.89L40.89 7.89L40.89 7.89Q40.93 7.92 40.93 7.99L40.93 7.99L40.93 7.99Q40.93 8.01 40.92 8.05L40.92 8.05L40.92 8.05Q40.91 8.08 40.91 8.11L40.91 8.11L40.82 8.52L40.82 8.52Q40.81 8.60 40.79 8.62L40.79 8.62L40.79 8.62Q40.76 8.63 40.74 8.63L40.74 8.63L40.74 8.63Q40.71 8.63 40.61 8.61L40.61 8.61L40.61 8.61Q40.52 8.59 40.41 8.59L40.41 8.59L40.41 8.59Q40.02 8.59 39.79 8.80L39.79 8.80L39.79 8.80Q39.57 9.01 39.50 9.53L39.50 9.53L39.12 12.72L39.12 12.72Q39.07 13.15 38.84 13.51L38.84 13.51L38.84 13.51Q38.61 13.88 38.18 14.16L38.18 14.16L38.18 14.16Q37.75 14.44 37.12 14.60L37.12 14.60L37.12 14.60Q36.48 14.77 35.64 14.77L35.64 14.77L35.64 14.77Q35.10 14.77 34.60 14.70L34.60 14.70L34.60 14.70Q34.09 14.64 33.66 14.54L33.66 14.54L33.66 14.54Q33.24 14.45 32.92 14.36L32.92 14.36L32.92 14.36Q32.60 14.27 32.44 14.21L32.44 14.21L32.44 14.21Q32.39 14.20 32.36 14.17L32.36 14.17L32.36 14.17Q32.33 14.15 32.33 14.10L32.33 14.10L32.33 14.10Q32.33 14.07 32.33 14.03L32.33 14.03L32.33 14.03Q32.34 14 32.35 13.95L32.35 13.95L32.44 13.57L32.44 13.57Q32.45 13.51 32.48 13.48L32.48 13.48L32.48 13.48Q32.52 13.45 32.61 13.45L32.61 13.45L32.61 13.45Q32.83 13.45 33.06 13.42L33.06 13.42L33.06 13.42Q33.29 13.40 33.49 13.30L33.49 13.30L33.49 13.30Q33.68 13.19 33.83 12.98L33.83 12.98L33.83 12.98Q33.97 12.77 34.03 12.39L34.03 12.39L34.51 9.09L34.51 9.09Q34.58 8.57 34.89 8.22L34.89 8.22L34.89 8.22Q35.20 7.88 35.65 7.67L35.65 7.67L35.65 7.67Q36.11 7.46 36.68 7.37L36.68 7.37L36.68 7.37Q37.26 7.29 37.86 7.29ZM46.56 4.28L46.56 7.66L46.56 7.66Q46.71 7.54 46.92 7.46L46.92 7.46L46.92 7.46Q47.13 7.39 47.39 7.39L47.39 7.39L47.39 7.39Q48.04 7.39 48.41 7.84L48.41 7.84L48.41 7.84Q48.77 8.29 48.77 9.17L48.77 9.17L48.77 14.21L48.77 14.21Q48.77 14.32 48.74 14.39L48.74 14.39L48.74 14.39Q48.71 14.45 48.67 14.48L48.67 14.48L48.67 14.48Q48.62 14.51 48.56 14.52L48.56 14.52L48.56 14.52Q48.50 14.53 48.44 14.53L48.44 14.53L48.00 14.53L48.00 14.53Q47.82 14.53 47.77 14.42L47.77 14.42L47.77 14.42Q47.72 14.32 47.72 14.21L47.72 14.21L47.72 9.10L47.72 9.10Q47.72 8.71 47.58 8.50L47.58 8.50L47.58 8.50Q47.44 8.30 47.13 8.30L47.13 8.30L47.13 8.30Q46.98 8.30 46.82 8.38L46.82 8.38L46.82 8.38Q46.66 8.47 46.56 8.57L46.56 8.57L46.56 13.57L46.56 13.57Q46.56 13.81 46.53 13.99L46.53 13.99L46.53 13.99Q46.50 14.16 46.40 14.28L46.40 14.28L46.40 14.28Q46.30 14.40 46.11 14.46L46.11 14.46L46.11 14.46Q45.92 14.53 45.59 14.53L45.59 14.53L42.42 14.53L42.42 14.53Q42.16 14.53 41.98 14.46L41.98 14.46L41.98 14.46Q41.81 14.40 41.71 14.29L41.71 14.29L41.71 14.29Q41.60 14.17 41.56 13.99L41.56 13.99L41.56 13.99Q41.52 13.82 41.52 13.58L41.52 13.58L41.52 4.28L41.52 4.28Q41.52 4.05 41.56 3.87L41.56 3.87L41.56 3.87Q41.60 3.68 41.72 3.57L41.72 3.57L41.72 3.57Q41.84 3.45 42.04 3.39L42.04 3.39L42.04 3.39Q42.25 3.33 42.57 3.33L42.57 3.33L45.57 3.33L45.57 3.33Q45.88 3.33 46.07 3.38L46.07 3.38L46.07 3.38Q46.27 3.44 46.38 3.56L46.38 3.56L46.38 3.56Q46.48 3.68 46.52 3.86L46.52 3.86L46.52 3.86Q46.56 4.03 46.56 4.28L46.56 4.28ZM56.23 13.39L56.23 13.39L56.23 13.39Q56.41 13.39 56.56 13.34L56.56 13.34L56.56 13.34Q56.71 13.29 56.83 13.23L56.83 13.23L56.83 13.23Q56.95 13.17 57.03 13.11L57.03 13.11L57.03 13.11Q57.11 13.06 57.15 13.06L57.15 13.06L57.15 13.06Q57.21 13.06 57.23 13.08L57.23 13.08L57.23 13.08Q57.26 13.10 57.29 13.16L57.29 13.16L57.53 13.53L57.53 13.53Q57.57 13.58 57.57 13.62L57.57 13.62L57.57 13.62Q57.57 13.67 57.54 13.70L57.54 13.70L57.54 13.70Q57.51 13.73 57.48 13.75L57.48 13.75L57.48 13.75Q57.26 13.90 56.93 14.09L56.93 14.09L56.93 14.09Q56.60 14.27 56.17 14.42L56.17 14.42L56.17 14.42Q55.73 14.57 55.19 14.67L55.19 14.67L55.19 14.67Q54.64 14.77 53.98 14.77L53.98 14.77L53.98 14.77Q53.47 14.77 52.96 14.68L52.96 14.68L52.96 14.68Q52.45 14.60 51.98 14.42L51.98 14.42L51.98 14.42Q51.51 14.25 51.11 13.96L51.11 13.96L51.11 13.96Q50.70 13.67 50.40 13.25L50.40 13.25L50.40 13.25Q50.11 12.84 49.94 12.29L49.94 12.29L49.94 12.29Q49.77 11.74 49.77 11.03L49.77 11.03L49.77 11.03Q49.77 10.33 49.94 9.78L49.94 9.78L49.94 9.78Q50.11 9.23 50.40 8.81L50.40 8.81L50.40 8.81Q50.70 8.39 51.11 8.10L51.11 8.10L51.11 8.10Q51.51 7.81 51.98 7.63L51.98 7.63L51.98 7.63Q52.45 7.45 52.96 7.37L52.96 7.37L52.96 7.37Q53.47 7.29 53.98 7.29L53.98 7.29L53.98 7.29Q54.84 7.29 55.57 7.48L55.57 7.48L55.57 7.48Q56.31 7.67 56.85 8.11L56.85 8.11L56.85 8.11Q57.39 8.54 57.70 9.26L57.70 9.26L57.70 9.26Q58.00 9.97 58.00 11.00L58.00 11.00L58.00 11.38L58.00 11.38Q58.00 11.50 57.94 11.57L57.94 11.57L57.94 11.57Q57.88 11.64 57.74 11.64L57.74 11.64L54.91 11.64L54.91 11.64Q54.96 12.15 55.10 12.49L55.10 12.49L55.10 12.49Q55.24 12.82 55.42 13.03L55.42 13.03L55.42 13.03Q55.60 13.23 55.82 13.31L55.82 13.31L55.82 13.31Q56.03 13.39 56.23 13.39ZM54.88 10.80L57.03 10.80L57.03 10.80Q57.03 10.25 56.95 9.90L56.95 9.90L56.95 9.90Q56.86 9.54 56.72 9.32L56.72 9.32L56.72 9.32Q56.57 9.11 56.38 9.02L56.38 9.02L56.38 9.02Q56.18 8.93 55.97 8.93L55.97 8.93L55.97 8.93Q55.82 8.93 55.63 8.99L55.63 8.99L55.63 8.99Q55.45 9.05 55.29 9.25L55.29 9.25L55.29 9.25Q55.13 9.45 55.01 9.82L55.01 9.82L55.01 9.82Q54.90 10.19 54.88 10.80L54.88 10.80ZM58.99 13.58L58.99 4.28L58.99 4.28Q58.99 4.05 59.04 3.87L59.04 3.87L59.04 3.87Q59.08 3.68 59.19 3.57L59.19 3.57L59.19 3.57Q59.31 3.45 59.51 3.39L59.51 3.39L59.51 3.39Q59.72 3.33 60.05 3.33L60.05 3.33L63.04 3.33L63.04 3.33Q63.36 3.33 63.55 3.39L63.55 3.39L63.55 3.39Q63.74 3.45 63.85 3.57L63.85 3.57L63.85 3.57Q63.96 3.68 63.99 3.87L63.99 3.87L63.99 3.87Q64.03 4.05 64.03 4.28L64.03 4.28L64.03 9.21L65.67 7.59L65.67 7.59Q65.75 7.51 65.82 7.48L65.82 7.48L65.82 7.48Q65.88 7.45 65.94 7.45L65.94 7.45L65.94 7.45Q66.06 7.45 66.15 7.55L66.15 7.55L66.49 7.91L66.49 7.91Q66.57 8.00 66.57 8.08L66.57 8.08L66.57 8.08Q66.57 8.16 66.52 8.23L66.52 8.23L66.52 8.23Q66.47 8.31 66.35 8.39L66.35 8.39L64.21 9.97L64.21 9.97Q64.78 9.99 65.17 10.12L65.17 10.12L65.17 10.12Q65.56 10.25 65.80 10.49L65.80 10.49L65.80 10.49Q66.04 10.73 66.14 11.08L66.14 11.08L66.14 11.08Q66.25 11.44 66.25 11.91L66.25 11.91L66.25 14.21L66.25 14.21Q66.25 14.32 66.22 14.39L66.22 14.39L66.22 14.39Q66.19 14.45 66.14 14.48L66.14 14.48L66.14 14.48Q66.10 14.51 66.04 14.52L66.04 14.52L66.04 14.52Q65.97 14.53 65.91 14.53L65.91 14.53L65.47 14.53L65.47 14.53Q65.30 14.53 65.25 14.42L65.25 14.42L65.25 14.42Q65.19 14.32 65.19 14.21L65.19 14.21L65.19 11.84L65.19 11.84Q65.19 11.53 65.14 11.32L65.14 11.32L65.14 11.32Q65.08 11.11 64.94 10.98L64.94 10.98L64.94 10.98Q64.80 10.86 64.58 10.80L64.58 10.80L64.58 10.80Q64.36 10.74 64.03 10.73L64.03 10.73L64.03 13.59L64.03 13.59Q64.03 13.82 63.99 14.00L63.99 14.00L63.99 14.00Q63.94 14.17 63.82 14.29L63.82 14.29L63.82 14.29Q63.70 14.41 63.48 14.47L63.48 14.47L63.48 14.47Q63.26 14.53 62.92 14.53L62.92 14.53L60.05 14.53L60.05 14.53Q59.72 14.53 59.51 14.46L59.51 14.46L59.51 14.46Q59.31 14.40 59.19 14.29L59.19 14.29L59.19 14.29Q59.08 14.17 59.04 13.99L59.04 13.99L59.04 13.99Q58.99 13.82 58.99 13.58L58.99 13.58Z"></path></g><!----><!----><g data-v-423bf9ae="" id="d7f25ced-dec3-46de-9780-469cd2868b17" fill="white" transform="matrix(4.731861440741736,0,0,4.731861440741736,32.80839869780527,125.05046793371505)"><path d="M7.10 10.28L1.43 7.95L7.10 5.63L7.10 4.54L0.36 7.52L0.36 8.40L7.10 11.37ZM18.41 1.96L15.20 11.93L16.18 11.93L19.39 1.96L18.41 1.96ZM32.00 10.57C29.75 10.57 28.49 8.93 28.49 6.85C28.49 4.76 29.75 3.12 32.00 3.12C33.53 3.12 34.54 3.85 35.01 4.98L36.12 4.98C35.53 3.29 34.02 2.10 31.92 2.10C29.13 2.10 27.44 4.21 27.44 6.85C27.44 9.48 29.13 11.59 31.92 11.59C34.02 11.59 35.53 10.40 36.12 8.71L35.01 8.71C34.54 9.84 33.53 10.57 32.00 10.57ZM47.50 4.37C45.36 4.37 44.03 5.98 44.03 7.98C44.03 9.98 45.36 11.59 47.50 11.59C49.64 11.59 50.97 9.98 50.97 7.98C50.97 5.98 49.64 4.37 47.50 4.37ZM47.50 10.64C45.95 10.64 45.08 9.42 45.08 7.98C45.08 6.54 45.95 5.32 47.50 5.32C49.06 5.32 49.92 6.54 49.92 7.98C49.92 9.42 49.06 10.64 47.50 10.64ZM62.31 4.37C60.27 4.37 58.93 5.98 58.93 7.98C58.93 9.98 60.27 11.59 62.31 11.59C63.48 11.59 64.30 11.12 64.82 10.36L64.82 11.48L65.87 11.48L65.87 1.68L64.82 1.68L64.82 5.61C64.30 4.86 63.48 4.37 62.31 4.37ZM62.45 10.64C60.90 10.64 59.98 9.42 59.98 7.98C59.98 6.54 60.90 5.32 62.45 5.32C64.01 5.32 64.88 6.54 64.88 7.98C64.88 9.42 64.01 10.64 62.45 10.64ZM74.69 11.48L75.74 11.48L75.74 4.48L74.69 4.48ZM74.65 1.93L74.65 3.30L75.78 3.30L75.78 1.93ZM84.56 4.48L84.56 11.48L85.61 11.48L85.61 7.45C85.61 6.19 86.56 5.32 87.72 5.32C88.87 5.32 89.68 6.16 89.68 7.43L89.68 11.48L90.73 11.48L90.73 7.41C90.73 5.42 89.38 4.37 87.93 4.37C86.80 4.37 86.11 4.90 85.61 5.57L85.61 4.48ZM104.94 4.48L104.94 5.60C104.43 4.84 103.60 4.37 102.44 4.37C100.39 4.37 99.05 5.92 99.05 7.92C99.05 9.93 100.39 11.48 102.44 11.48C103.60 11.48 104.43 10.99 104.94 10.23L104.94 11.20C104.94 12.64 104.24 13.41 102.63 13.41C101.57 13.41 100.87 13.01 100.59 12.32L99.43 12.32C99.82 13.54 100.93 14.36 102.69 14.36C104.79 14.36 105.99 13.27 105.99 11.27L105.99 4.48ZM102.58 10.53C101.02 10.53 100.10 9.37 100.10 7.92C100.10 6.48 101.02 5.32 102.58 5.32C104.10 5.32 105.00 6.48 105.00 7.92C105.00 9.37 104.10 10.53 102.58 10.53ZM114.49 11.37L121.23 8.40L121.23 7.52L114.49 4.54L114.49 5.63L120.16 7.95L114.49 10.28Z"></path></g></svg>