<svg data-v-423bf9ae="" xmlns="http://www.w3.org/2000/svg" viewBox="0 0 1188.3560085266283 193" class="fontAboveSlogan"><!----><!----><!----><g data-v-423bf9ae="" id="55c75d4d-faa1-40e3-9957-62bdb9c677ef" fill="#1A1626" transform="matrix(9.62309522296362,0,0,9.62309522296362,0.21838281895873024,-22.005580818459038)"><path d="M3.62 4.71L4.63 4.71L4.63 4.71Q4.76 4.71 4.85 4.74L4.85 4.74L4.85 4.74Q4.94 4.77 5.01 4.85L5.01 4.85L5.01 4.85Q5.08 4.92 5.14 5.04L5.14 5.04L5.14 5.04Q5.20 5.17 5.27 5.35L5.27 5.35L8.41 13.73L8.41 13.73Q8.44 13.82 8.46 13.90L8.46 13.90L8.46 13.90Q8.47 13.97 8.47 14.05L8.47 14.05L8.47 14.05Q8.47 14.29 8.32 14.41L8.32 14.41L8.32 14.41Q8.18 14.53 8.01 14.53L8.01 14.53L4.14 14.53L4.14 14.53Q3.96 14.53 3.84 14.48L3.84 14.48L3.84 14.48Q3.72 14.44 3.64 14.38L3.64 14.38L3.64 14.38Q3.55 14.31 3.51 14.25L3.51 14.25L3.51 14.25Q3.47 14.18 3.45 14.12L3.45 14.12L3.38 13.88L1.46 13.88L1.41 14.09L1.41 14.09Q1.39 14.19 1.36 14.27L1.36 14.27L1.36 14.27Q1.33 14.35 1.29 14.41L1.29 14.41L1.29 14.41Q1.25 14.46 1.18 14.50L1.18 14.50L1.18 14.50Q1.11 14.53 0.99 14.53L0.99 14.53L0.29 14.53L0.29 14.53Q0.07 14.53 0.07 14.36L0.07 14.36L0.07 14.36Q0.07 14.29 0.09 14.21L0.09 14.21L0.09 14.21Q0.12 14.12 0.16 14.01L0.16 14.01L3.01 5.36L3.01 5.36Q3.12 5.04 3.25 4.88L3.25 4.88L3.25 4.88Q3.38 4.72 3.62 4.71L3.62 4.71ZM2.39 10.37L1.67 13.04L3.14 13.04L2.39 10.37ZM12.99 14.66L12.99 14.66L12.99 14.66Q12.09 14.66 11.38 14.42L11.38 14.42L11.38 14.42Q10.67 14.18 10.18 13.73L10.18 13.73L10.18 13.73Q9.69 13.28 9.43 12.61L9.43 12.61L9.43 12.61Q9.17 11.94 9.17 11.07L9.17 11.07L9.17 4.27L9.17 4.27Q9.17 4.03 9.21 3.85L9.21 3.85L9.21 3.85Q9.25 3.67 9.37 3.55L9.37 3.55L9.37 3.55Q9.48 3.44 9.69 3.38L9.69 3.38L9.69 3.38Q9.89 3.32 10.22 3.32L10.22 3.32L13.21 3.32L13.21 3.32Q13.51 3.32 13.70 3.38L13.70 3.38L13.70 3.38Q13.89 3.44 14.00 3.56L14.00 3.56L14.00 3.56Q14.12 3.68 14.16 3.86L14.16 3.86L14.16 3.86Q14.21 4.04 14.21 4.29L14.21 4.29L14.21 7.53L14.21 7.53Q14.81 7.64 15.35 7.88L15.35 7.88L15.35 7.88Q15.89 8.12 16.30 8.54L16.30 8.54L16.30 8.54Q16.71 8.96 16.95 9.58L16.95 9.58L16.95 9.58Q17.19 10.19 17.19 11.05L17.19 11.05L17.19 11.05Q17.19 11.77 17.02 12.31L17.02 12.31L17.02 12.31Q16.86 12.86 16.56 13.26L16.56 13.26L16.56 13.26Q16.26 13.67 15.86 13.93L15.86 13.93L15.86 13.93Q15.46 14.20 14.99 14.36L14.99 14.36L14.99 14.36Q14.53 14.53 14.01 14.59L14.01 14.59L14.01 14.59Q13.50 14.66 12.99 14.66ZM14.21 8.40L14.21 13.69L14.21 13.69Q14.74 13.62 15.12 13.40L15.12 13.40L15.12 13.40Q15.50 13.18 15.75 12.83L15.75 12.83L15.75 12.83Q15.99 12.48 16.11 12.03L16.11 12.03L16.11 12.03Q16.22 11.58 16.22 11.05L16.22 11.05L16.22 11.05Q16.22 10.53 16.11 10.08L16.11 10.08L16.11 10.08Q15.99 9.62 15.74 9.27L15.74 9.27L15.74 9.27Q15.50 8.92 15.12 8.70L15.12 8.70L15.12 8.70Q14.74 8.47 14.21 8.40L14.21 8.40ZM23.22 4.28L23.22 7.66L23.22 7.66Q23.37 7.54 23.58 7.46L23.58 7.46L23.58 7.46Q23.80 7.39 24.05 7.39L24.05 7.39L24.05 7.39Q24.71 7.39 25.07 7.84L25.07 7.84L25.07 7.84Q25.44 8.29 25.44 9.17L25.44 9.17L25.44 14.21L25.44 14.21Q25.44 14.32 25.41 14.39L25.41 14.39L25.41 14.39Q25.38 14.45 25.33 14.48L25.33 14.48L25.33 14.48Q25.29 14.51 25.22 14.52L25.22 14.52L25.22 14.52Q25.16 14.53 25.10 14.53L25.10 14.53L24.66 14.53L24.66 14.53Q24.49 14.53 24.44 14.42L24.44 14.42L24.44 14.42Q24.38 14.32 24.38 14.21L24.38 14.21L24.38 9.10L24.38 9.10Q24.38 8.71 24.24 8.50L24.24 8.50L24.24 8.50Q24.10 8.30 23.80 8.30L23.80 8.30L23.80 8.30Q23.64 8.30 23.48 8.38L23.48 8.38L23.48 8.38Q23.32 8.47 23.22 8.57L23.22 8.57L23.22 13.57L23.22 13.57Q23.22 13.81 23.19 13.99L23.19 13.99L23.19 13.99Q23.17 14.16 23.06 14.28L23.06 14.28L23.06 14.28Q22.96 14.40 22.77 14.46L22.77 14.46L22.77 14.46Q22.58 14.53 22.25 14.53L22.25 14.53L19.09 14.53L19.09 14.53Q18.82 14.53 18.65 14.46L18.65 14.46L18.65 14.46Q18.47 14.40 18.37 14.29L18.37 14.29L18.37 14.29Q18.27 14.17 18.22 13.99L18.22 13.99L18.22 13.99Q18.18 13.82 18.18 13.58L18.18 13.58L18.18 4.28L18.18 4.28Q18.18 4.05 18.22 3.87L18.22 3.87L18.22 3.87Q18.27 3.68 18.38 3.57L18.38 3.57L18.38 3.57Q18.50 3.45 18.70 3.39L18.70 3.39L18.70 3.39Q18.91 3.33 19.24 3.33L19.24 3.33L22.23 3.33L22.23 3.33Q22.54 3.33 22.73 3.38L22.73 3.38L22.73 3.38Q22.93 3.44 23.04 3.56L23.04 3.56L23.04 3.56Q23.15 3.68 23.18 3.86L23.18 3.86L23.18 3.86Q23.22 4.03 23.22 4.28L23.22 4.28ZM26.69 13.58L26.69 8.48L26.69 8.48Q26.69 8.24 26.74 8.06L26.74 8.06L26.74 8.06Q26.78 7.88 26.89 7.77L26.89 7.77L26.89 7.77Q27.01 7.65 27.21 7.59L27.21 7.59L27.21 7.59Q27.42 7.53 27.75 7.53L27.75 7.53L30.74 7.53L30.74 7.53Q31.06 7.53 31.25 7.58L31.25 7.58L31.25 7.58Q31.45 7.64 31.55 7.76L31.55 7.76L31.55 7.76Q31.66 7.88 31.70 8.05L31.70 8.05L31.70 8.05Q31.73 8.23 31.73 8.48L31.73 8.48L31.73 13.59L31.73 13.59Q31.73 13.82 31.70 14.00L31.70 14.00L31.70 14.00Q31.66 14.17 31.55 14.29L31.55 14.29L31.55 14.29Q31.45 14.41 31.25 14.47L31.25 14.47L31.25 14.47Q31.06 14.53 30.74 14.53L30.74 14.53L27.75 14.53L27.75 14.53Q27.42 14.53 27.21 14.46L27.21 14.46L27.21 14.46Q27.01 14.40 26.89 14.29L26.89 14.29L26.89 14.29Q26.78 14.17 26.74 13.99L26.74 13.99L26.74 13.99Q26.69 13.82 26.69 13.58L26.69 13.58ZM26.95 4.60L26.95 4.60L26.95 4.60Q26.95 4.13 27.13 3.71L27.13 3.71L27.13 3.71Q27.31 3.29 27.62 2.99L27.62 2.99L27.62 2.99Q27.92 2.68 28.34 2.50L28.34 2.50L28.34 2.50Q28.76 2.32 29.23 2.32L29.23 2.32L29.23 2.32Q29.70 2.32 30.11 2.50L30.11 2.50L30.11 2.50Q30.52 2.68 30.83 2.99L30.83 2.99L30.83 2.99Q31.14 3.29 31.32 3.71L31.32 3.71L31.32 3.71Q31.50 4.13 31.50 4.60L31.50 4.60L31.50 4.60Q31.50 5.07 31.32 5.48L31.32 5.48L31.32 5.48Q31.14 5.89 30.83 6.20L30.83 6.20L30.83 6.20Q30.52 6.51 30.11 6.69L30.11 6.69L30.11 6.69Q29.70 6.87 29.23 6.87L29.23 6.87L29.23 6.87Q28.76 6.87 28.34 6.69L28.34 6.69L28.34 6.69Q27.92 6.51 27.62 6.20L27.62 6.20L27.62 6.20Q27.31 5.89 27.13 5.48L27.13 5.48L27.13 5.48Q26.95 5.07 26.95 4.60ZM37.86 7.29L37.86 7.29L37.86 7.29Q38.30 7.29 38.74 7.34L38.74 7.34L38.74 7.34Q39.18 7.39 39.57 7.47L39.57 7.47L39.57 7.47Q39.96 7.55 40.29 7.65L40.29 7.65L40.29 7.65Q40.61 7.75 40.82 7.85L40.82 7.85L40.82 7.85Q40.85 7.86 40.89 7.89L40.89 7.89L40.89 7.89Q40.93 7.92 40.93 7.99L40.93 7.99L40.93 7.99Q40.93 8.01 40.92 8.05L40.92 8.05L40.92 8.05Q40.91 8.08 40.91 8.11L40.91 8.11L40.82 8.52L40.82 8.52Q40.81 8.60 40.79 8.62L40.79 8.62L40.79 8.62Q40.76 8.63 40.74 8.63L40.74 8.63L40.74 8.63Q40.71 8.63 40.61 8.61L40.61 8.61L40.61 8.61Q40.52 8.59 40.41 8.59L40.41 8.59L40.41 8.59Q40.02 8.59 39.79 8.80L39.79 8.80L39.79 8.80Q39.57 9.01 39.50 9.53L39.50 9.53L39.12 12.72L39.12 12.72Q39.07 13.15 38.84 13.51L38.84 13.51L38.84 13.51Q38.61 13.88 38.18 14.16L38.18 14.16L38.18 14.16Q37.75 14.44 37.12 14.60L37.12 14.60L37.12 14.60Q36.48 14.77 35.64 14.77L35.64 14.77L35.64 14.77Q35.10 14.77 34.60 14.70L34.60 14.70L34.60 14.70Q34.09 14.64 33.66 14.54L33.66 14.54L33.66 14.54Q33.24 14.45 32.92 14.36L32.92 14.36L32.92 14.36Q32.60 14.27 32.44 14.21L32.44 14.21L32.44 14.21Q32.39 14.20 32.36 14.17L32.36 14.17L32.36 14.17Q32.33 14.15 32.33 14.10L32.33 14.10L32.33 14.10Q32.33 14.07 32.33 14.03L32.33 14.03L32.33 14.03Q32.34 14 32.35 13.95L32.35 13.95L32.44 13.57L32.44 13.57Q32.45 13.51 32.48 13.48L32.48 13.48L32.48 13.48Q32.52 13.45 32.61 13.45L32.61 13.45L32.61 13.45Q32.83 13.45 33.06 13.42L33.06 13.42L33.06 13.42Q33.29 13.40 33.49 13.30L33.49 13.30L33.49 13.30Q33.68 13.19 33.83 12.98L33.83 12.98L33.83 12.98Q33.97 12.77 34.03 12.39L34.03 12.39L34.51 9.09L34.51 9.09Q34.58 8.57 34.89 8.22L34.89 8.22L34.89 8.22Q35.20 7.88 35.65 7.67L35.65 7.67L35.65 7.67Q36.11 7.46 36.68 7.37L36.68 7.37L36.68 7.37Q37.26 7.29 37.86 7.29ZM46.56 4.28L46.56 7.66L46.56 7.66Q46.71 7.54 46.92 7.46L46.92 7.46L46.92 7.46Q47.13 7.39 47.39 7.39L47.39 7.39L47.39 7.39Q48.04 7.39 48.41 7.84L48.41 7.84L48.41 7.84Q48.77 8.29 48.77 9.17L48.77 9.17L48.77 14.21L48.77 14.21Q48.77 14.32 48.74 14.39L48.74 14.39L48.74 14.39Q48.71 14.45 48.67 14.48L48.67 14.48L48.67 14.48Q48.62 14.51 48.56 14.52L48.56 14.52L48.56 14.52Q48.50 14.53 48.44 14.53L48.44 14.53L48.00 14.53L48.00 14.53Q47.82 14.53 47.77 14.42L47.77 14.42L47.77 14.42Q47.72 14.32 47.72 14.21L47.72 14.21L47.72 9.10L47.72 9.10Q47.72 8.71 47.58 8.50L47.58 8.50L47.58 8.50Q47.44 8.30 47.13 8.30L47.13 8.30L47.13 8.30Q46.98 8.30 46.82 8.38L46.82 8.38L46.82 8.38Q46.66 8.47 46.56 8.57L46.56 8.57L46.56 13.57L46.56 13.57Q46.56 13.81 46.53 13.99L46.53 13.99L46.53 13.99Q46.50 14.16 46.40 14.28L46.40 14.28L46.40 14.28Q46.30 14.40 46.11 14.46L46.11 14.46L46.11 14.46Q45.92 14.53 45.59 14.53L45.59 14.53L42.42 14.53L42.42 14.53Q42.16 14.53 41.98 14.46L41.98 14.46L41.98 14.46Q41.81 14.40 41.71 14.29L41.71 14.29L41.71 14.29Q41.60 14.17 41.56 13.99L41.56 13.99L41.56 13.99Q41.52 13.82 41.52 13.58L41.52 13.58L41.52 4.28L41.52 4.28Q41.52 4.05 41.56 3.87L41.56 3.87L41.56 3.87Q41.60 3.68 41.72 3.57L41.72 3.57L41.72 3.57Q41.84 3.45 42.04 3.39L42.04 3.39L42.04 3.39Q42.25 3.33 42.57 3.33L42.57 3.33L45.57 3.33L45.57 3.33Q45.88 3.33 46.07 3.38L46.07 3.38L46.07 3.38Q46.27 3.44 46.38 3.56L46.38 3.56L46.38 3.56Q46.48 3.68 46.52 3.86L46.52 3.86L46.52 3.86Q46.56 4.03 46.56 4.28L46.56 4.28ZM56.23 13.39L56.23 13.39L56.23 13.39Q56.41 13.39 56.56 13.34L56.56 13.34L56.56 13.34Q56.71 13.29 56.83 13.23L56.83 13.23L56.83 13.23Q56.95 13.17 57.03 13.11L57.03 13.11L57.03 13.11Q57.11 13.06 57.15 13.06L57.15 13.06L57.15 13.06Q57.21 13.06 57.23 13.08L57.23 13.08L57.23 13.08Q57.26 13.10 57.29 13.16L57.29 13.16L57.53 13.53L57.53 13.53Q57.57 13.58 57.57 13.62L57.57 13.62L57.57 13.62Q57.57 13.67 57.54 13.70L57.54 13.70L57.54 13.70Q57.51 13.73 57.48 13.75L57.48 13.75L57.48 13.75Q57.26 13.90 56.93 14.09L56.93 14.09L56.93 14.09Q56.60 14.27 56.17 14.42L56.17 14.42L56.17 14.42Q55.73 14.57 55.19 14.67L55.19 14.67L55.19 14.67Q54.64 14.77 53.98 14.77L53.98 14.77L53.98 14.77Q53.47 14.77 52.96 14.68L52.96 14.68L52.96 14.68Q52.45 14.60 51.98 14.42L51.98 14.42L51.98 14.42Q51.51 14.25 51.11 13.96L51.11 13.96L51.11 13.96Q50.70 13.67 50.40 13.25L50.40 13.25L50.40 13.25Q50.11 12.84 49.94 12.29L49.94 12.29L49.94 12.29Q49.77 11.74 49.77 11.03L49.77 11.03L49.77 11.03Q49.77 10.33 49.94 9.78L49.94 9.78L49.94 9.78Q50.11 9.23 50.40 8.81L50.40 8.81L50.40 8.81Q50.70 8.39 51.11 8.10L51.11 8.10L51.11 8.10Q51.51 7.81 51.98 7.63L51.98 7.63L51.98 7.63Q52.45 7.45 52.96 7.37L52.96 7.37L52.96 7.37Q53.47 7.29 53.98 7.29L53.98 7.29L53.98 7.29Q54.84 7.29 55.57 7.48L55.57 7.48L55.57 7.48Q56.31 7.67 56.85 8.11L56.85 8.11L56.85 8.11Q57.39 8.54 57.70 9.26L57.70 9.26L57.70 9.26Q58.00 9.97 58.00 11.00L58.00 11.00L58.00 11.38L58.00 11.38Q58.00 11.50 57.94 11.57L57.94 11.57L57.94 11.57Q57.88 11.64 57.74 11.64L57.74 11.64L54.91 11.64L54.91 11.64Q54.96 12.15 55.10 12.49L55.10 12.49L55.10 12.49Q55.24 12.82 55.42 13.03L55.42 13.03L55.42 13.03Q55.60 13.23 55.82 13.31L55.82 13.31L55.82 13.31Q56.03 13.39 56.23 13.39ZM54.88 10.80L57.03 10.80L57.03 10.80Q57.03 10.25 56.95 9.90L56.95 9.90L56.95 9.90Q56.86 9.54 56.72 9.32L56.72 9.32L56.72 9.32Q56.57 9.11 56.38 9.02L56.38 9.02L56.38 9.02Q56.18 8.93 55.97 8.93L55.97 8.93L55.97 8.93Q55.82 8.93 55.63 8.99L55.63 8.99L55.63 8.99Q55.45 9.05 55.29 9.25L55.29 9.25L55.29 9.25Q55.13 9.45 55.01 9.82L55.01 9.82L55.01 9.82Q54.90 10.19 54.88 10.80L54.88 10.80ZM58.99 13.58L58.99 4.28L58.99 4.28Q58.99 4.05 59.04 3.87L59.04 3.87L59.04 3.87Q59.08 3.68 59.19 3.57L59.19 3.57L59.19 3.57Q59.31 3.45 59.51 3.39L59.51 3.39L59.51 3.39Q59.72 3.33 60.05 3.33L60.05 3.33L63.04 3.33L63.04 3.33Q63.36 3.33 63.55 3.39L63.55 3.39L63.55 3.39Q63.74 3.45 63.85 3.57L63.85 3.57L63.85 3.57Q63.96 3.68 63.99 3.87L63.99 3.87L63.99 3.87Q64.03 4.05 64.03 4.28L64.03 4.28L64.03 9.21L65.67 7.59L65.67 7.59Q65.75 7.51 65.82 7.48L65.82 7.48L65.82 7.48Q65.88 7.45 65.94 7.45L65.94 7.45L65.94 7.45Q66.06 7.45 66.15 7.55L66.15 7.55L66.49 7.91L66.49 7.91Q66.57 8.00 66.57 8.08L66.57 8.08L66.57 8.08Q66.57 8.16 66.52 8.23L66.52 8.23L66.52 8.23Q66.47 8.31 66.35 8.39L66.35 8.39L64.21 9.97L64.21 9.97Q64.78 9.99 65.17 10.12L65.17 10.12L65.17 10.12Q65.56 10.25 65.80 10.49L65.80 10.49L65.80 10.49Q66.04 10.73 66.14 11.08L66.14 11.08L66.14 11.08Q66.25 11.44 66.25 11.91L66.25 11.91L66.25 14.21L66.25 14.21Q66.25 14.32 66.22 14.39L66.22 14.39L66.22 14.39Q66.19 14.45 66.14 14.48L66.14 14.48L66.14 14.48Q66.10 14.51 66.04 14.52L66.04 14.52L66.04 14.52Q65.97 14.53 65.91 14.53L65.91 14.53L65.47 14.53L65.47 14.53Q65.30 14.53 65.25 14.42L65.25 14.42L65.25 14.42Q65.19 14.32 65.19 14.21L65.19 14.21L65.19 11.84L65.19 11.84Q65.19 11.53 65.14 11.32L65.14 11.32L65.14 11.32Q65.08 11.11 64.94 10.98L64.94 10.98L64.94 10.98Q64.80 10.86 64.58 10.80L64.58 10.80L64.58 10.80Q64.36 10.74 64.03 10.73L64.03 10.73L64.03 13.59L64.03 13.59Q64.03 13.82 63.99 14.00L63.99 14.00L63.99 14.00Q63.94 14.17 63.82 14.29L63.82 14.29L63.82 14.29Q63.70 14.41 63.48 14.47L63.48 14.47L63.48 14.47Q63.26 14.53 62.92 14.53L62.92 14.53L60.05 14.53L60.05 14.53Q59.72 14.53 59.51 14.46L59.51 14.46L59.51 14.46Q59.31 14.40 59.19 14.29L59.19 14.29L59.19 14.29Q59.08 14.17 59.04 13.99L59.04 13.99L59.04 13.99Q58.99 13.82 58.99 13.58L58.99 13.58ZM72.63 11.89L73.11 7.06L73.11 7.06Q73.19 6.32 73.51 5.82L73.51 5.82L73.51 5.82Q73.84 5.32 74.33 5.02L74.33 5.02L74.33 5.02Q74.81 4.72 75.41 4.60L75.41 4.60L75.41 4.60Q76.00 4.48 76.61 4.48L76.61 4.48L76.61 4.48Q77.11 4.48 77.59 4.52L77.59 4.52L77.59 4.52Q78.07 4.56 78.47 4.61L78.47 4.61L78.47 4.61Q78.87 4.67 79.17 4.72L79.17 4.72L79.17 4.72Q79.46 4.78 79.60 4.81L79.60 4.81L79.60 4.81Q79.68 4.83 79.68 4.88L79.68 4.88L79.68 4.88Q79.68 4.89 79.67 4.96L79.67 4.96L79.56 5.46L79.56 5.46Q79.55 5.50 79.53 5.51L79.53 5.51L79.53 5.51Q79.50 5.52 79.48 5.52L79.48 5.52L79.48 5.52Q79.18 5.52 78.96 5.63L78.96 5.63L78.96 5.63Q78.74 5.73 78.60 5.91L78.60 5.91L78.60 5.91Q78.46 6.10 78.38 6.35L78.38 6.35L78.38 6.35Q78.31 6.60 78.28 6.90L78.28 6.90L77.87 11.87L77.87 11.87Q77.81 12.47 77.56 13.00L77.56 13.00L77.56 13.00Q77.31 13.54 76.86 13.93L76.86 13.93L76.86 13.93Q76.41 14.33 75.75 14.56L75.75 14.56L75.75 14.56Q75.09 14.79 74.25 14.79L74.25 14.79L74.25 14.79Q73.68 14.79 73.15 14.74L73.15 14.74L73.15 14.74Q72.63 14.68 72.19 14.61L72.19 14.61L72.19 14.61Q71.76 14.53 71.45 14.46L71.45 14.46L71.45 14.46Q71.14 14.39 71.00 14.36L71.00 14.36L71.00 14.36Q70.92 14.33 70.92 14.28L70.92 14.28L70.92 14.28Q70.92 14.27 70.94 14.21L70.94 14.21L71.05 13.69L71.05 13.69Q71.07 13.64 71.09 13.63L71.09 13.63L71.09 13.63Q71.11 13.62 71.13 13.62L71.13 13.62L71.13 13.62Q71.44 13.62 71.69 13.53L71.69 13.53L71.69 13.53Q71.95 13.44 72.14 13.23L72.14 13.23L72.14 13.23Q72.33 13.03 72.46 12.70L72.46 12.70L72.46 12.70Q72.58 12.37 72.63 11.89L72.63 11.89ZM85.39 4.28L85.39 7.66L85.39 7.66Q85.54 7.54 85.75 7.46L85.75 7.46L85.75 7.46Q85.96 7.39 86.21 7.39L86.21 7.39L86.21 7.39Q86.87 7.39 87.24 7.84L87.24 7.84L87.24 7.84Q87.60 8.29 87.60 9.17L87.60 9.17L87.60 14.21L87.60 14.21Q87.60 14.32 87.57 14.39L87.57 14.39L87.57 14.39Q87.54 14.45 87.50 14.48L87.50 14.48L87.50 14.48Q87.45 14.51 87.39 14.52L87.39 14.52L87.39 14.52Q87.33 14.53 87.27 14.53L87.27 14.53L86.83 14.53L86.83 14.53Q86.65 14.53 86.60 14.42L86.60 14.42L86.60 14.42Q86.55 14.32 86.55 14.21L86.55 14.21L86.55 9.10L86.55 9.10Q86.55 8.71 86.41 8.50L86.41 8.50L86.41 8.50Q86.27 8.30 85.96 8.30L85.96 8.30L85.96 8.30Q85.80 8.30 85.64 8.38L85.64 8.38L85.64 8.38Q85.48 8.47 85.39 8.57L85.39 8.57L85.39 13.57L85.39 13.57Q85.39 13.81 85.36 13.99L85.36 13.99L85.36 13.99Q85.33 14.16 85.23 14.28L85.23 14.28L85.23 14.28Q85.13 14.40 84.94 14.46L84.94 14.46L84.94 14.46Q84.75 14.53 84.42 14.53L84.42 14.53L81.25 14.53L81.25 14.53Q80.99 14.53 80.81 14.46L80.81 14.46L80.81 14.46Q80.64 14.40 80.53 14.29L80.53 14.29L80.53 14.29Q80.43 14.17 80.39 13.99L80.39 13.99L80.39 13.99Q80.35 13.82 80.35 13.58L80.35 13.58L80.35 4.28L80.35 4.28Q80.35 4.05 80.39 3.87L80.39 3.87L80.39 3.87Q80.43 3.68 80.55 3.57L80.55 3.57L80.55 3.57Q80.66 3.45 80.87 3.39L80.87 3.39L80.87 3.39Q81.07 3.33 81.40 3.33L81.40 3.33L84.40 3.33L84.40 3.33Q84.70 3.33 84.90 3.38L84.90 3.38L84.90 3.38Q85.09 3.44 85.20 3.56L85.20 3.56L85.20 3.56Q85.31 3.68 85.35 3.86L85.35 3.86L85.35 3.86Q85.39 4.03 85.39 4.28L85.39 4.28ZM95.37 14.53L91.72 14.53L91.72 14.53Q91.35 14.53 90.98 14.48L90.98 14.48L90.98 14.48Q90.60 14.43 90.27 14.32L90.27 14.32L90.27 14.32Q89.93 14.22 89.63 14.05L89.63 14.05L89.63 14.05Q89.34 13.88 89.12 13.62L89.12 13.62L89.12 13.62Q88.91 13.37 88.79 13.03L88.79 13.03L88.79 13.03Q88.66 12.69 88.66 12.24L88.66 12.24L88.66 12.24Q88.66 11.65 88.89 11.22L88.89 11.22L88.89 11.22Q89.11 10.80 89.49 10.52L89.49 10.52L89.49 10.52Q89.87 10.24 90.36 10.09L90.36 10.09L90.36 10.09Q90.86 9.94 91.38 9.90L91.38 9.90L91.38 9.43L91.38 9.43Q91.38 9.16 91.31 9.00L91.31 9.00L91.31 9.00Q91.25 8.85 91.14 8.77L91.14 8.77L91.14 8.77Q91.03 8.69 90.91 8.66L90.91 8.66L90.91 8.66Q90.78 8.64 90.67 8.64L90.67 8.64L90.67 8.64Q90.53 8.64 90.37 8.68L90.37 8.68L90.37 8.68Q90.22 8.72 90.08 8.78L90.08 8.78L90.08 8.78Q89.93 8.84 89.80 8.91L89.80 8.91L89.80 8.91Q89.67 8.98 89.58 9.03L89.58 9.03L89.58 9.03Q89.54 9.06 89.51 9.08L89.51 9.08L89.51 9.08Q89.48 9.10 89.44 9.10L89.44 9.10L89.44 9.10Q89.38 9.10 89.33 9.01L89.33 9.01L89.09 8.64L89.09 8.64Q89.06 8.59 89.06 8.54L89.06 8.54L89.06 8.54Q89.06 8.48 89.10 8.44L89.10 8.44L89.10 8.44Q89.15 8.40 89.19 8.37L89.19 8.37L89.19 8.37Q89.41 8.22 89.76 8.05L89.76 8.05L89.76 8.05Q90.11 7.89 90.55 7.76L90.55 7.76L90.55 7.76Q90.98 7.63 91.49 7.55L91.49 7.55L91.49 7.55Q91.99 7.46 92.53 7.46L92.53 7.46L92.53 7.46Q93.04 7.46 93.53 7.50L93.53 7.50L93.53 7.50Q94.02 7.53 94.46 7.65L94.46 7.65L94.46 7.65Q94.89 7.76 95.25 7.97L95.25 7.97L95.25 7.97Q95.61 8.18 95.87 8.52L95.87 8.52L95.87 8.52Q96.13 8.86 96.28 9.36L96.28 9.36L96.28 9.36Q96.42 9.86 96.42 10.55L96.42 10.55L96.42 13.60L96.42 13.60Q96.42 13.83 96.38 14.00L96.38 14.00L96.38 14.00Q96.34 14.18 96.22 14.29L96.22 14.29L96.22 14.29Q96.11 14.41 95.90 14.47L95.90 14.47L95.90 14.47Q95.70 14.53 95.37 14.53L95.37 14.53ZM91.38 13.65L91.38 10.77L91.38 10.77Q90.89 10.77 90.56 10.89L90.56 10.89L90.56 10.89Q90.22 11.01 90.02 11.22L90.02 11.22L90.02 11.22Q89.81 11.42 89.72 11.69L89.72 11.69L89.72 11.69Q89.63 11.96 89.63 12.25L89.63 12.25L89.63 12.25Q89.63 12.54 89.72 12.79L89.72 12.79L89.72 12.79Q89.81 13.05 90.02 13.24L90.02 13.24L90.02 13.24Q90.22 13.43 90.56 13.54L90.56 13.54L90.56 13.54Q90.89 13.65 91.38 13.65L91.38 13.65ZM97.68 13.58L97.68 8.48L97.68 8.48Q97.68 8.24 97.72 8.06L97.72 8.06L97.72 8.06Q97.76 7.88 97.88 7.77L97.88 7.77L97.88 7.77Q97.99 7.65 98.20 7.59L98.20 7.59L98.20 7.59Q98.40 7.53 98.73 7.53L98.73 7.53L101.73 7.53L101.73 7.53Q102.04 7.53 102.23 7.59L102.23 7.59L102.23 7.59Q102.42 7.65 102.53 7.77L102.53 7.77L102.53 7.77Q102.64 7.90 102.68 8.08L102.68 8.08L102.68 8.08Q102.72 8.26 102.72 8.51L102.72 8.51L102.72 9.02L104.23 7.54L104.23 7.54Q104.38 7.40 104.51 7.40L104.51 7.40L104.51 7.40Q104.59 7.40 104.65 7.43L104.65 7.43L104.65 7.43Q104.71 7.46 104.75 7.50L104.75 7.50L105.05 7.82L105.05 7.82Q105.16 7.92 105.16 8.05L105.16 8.05L105.16 8.05Q105.16 8.12 105.11 8.20L105.11 8.20L105.11 8.20Q105.07 8.28 104.97 8.35L104.97 8.35L102.72 10.10L102.72 13.56L102.72 13.56Q102.72 13.80 102.68 13.98L102.68 13.98L102.68 13.98Q102.65 14.16 102.53 14.28L102.53 14.28L102.53 14.28Q102.42 14.40 102.20 14.46L102.20 14.46L102.20 14.46Q101.98 14.53 101.60 14.53L101.60 14.53L98.73 14.53L98.73 14.53Q98.40 14.53 98.20 14.46L98.20 14.46L98.20 14.46Q97.99 14.40 97.88 14.29L97.88 14.29L97.88 14.29Q97.76 14.17 97.72 13.99L97.72 13.99L97.72 13.99Q97.68 13.82 97.68 13.58L97.68 13.58ZM105.27 13.58L105.27 8.48L105.27 8.48Q105.27 8.24 105.31 8.06L105.31 8.06L105.31 8.06Q105.36 7.88 105.47 7.77L105.47 7.77L105.47 7.77Q105.59 7.65 105.79 7.59L105.79 7.59L105.79 7.59Q106.00 7.53 106.33 7.53L106.33 7.53L109.12 7.53L109.12 7.53Q109.43 7.53 109.64 7.59L109.64 7.59L109.64 7.59Q109.85 7.65 109.95 7.80L109.95 7.80L109.95 7.80Q110.04 7.73 110.17 7.66L110.17 7.66L110.17 7.66Q110.30 7.59 110.45 7.53L110.45 7.53L110.45 7.53Q110.61 7.46 110.78 7.43L110.78 7.43L110.78 7.43Q110.95 7.39 111.14 7.39L111.14 7.39L111.14 7.39Q111.77 7.39 112.13 7.81L112.13 7.81L112.13 7.81Q112.23 7.74 112.33 7.67L112.33 7.67L112.33 7.67Q112.47 7.59 112.64 7.53L112.64 7.53L112.64 7.53Q112.80 7.46 112.98 7.43L112.98 7.43L112.98 7.43Q113.17 7.39 113.35 7.39L113.35 7.39L113.35 7.39Q114.01 7.39 114.38 7.84L114.38 7.84L114.38 7.84Q114.74 8.29 114.74 9.17L114.74 9.17L114.74 14.21L114.74 14.21Q114.74 14.32 114.71 14.39L114.71 14.39L114.71 14.39Q114.68 14.45 114.63 14.48L114.63 14.48L114.63 14.48Q114.58 14.51 114.52 14.52L114.52 14.52L114.52 14.52Q114.46 14.53 114.40 14.53L114.40 14.53L113.97 14.53L113.97 14.53Q113.79 14.53 113.74 14.42L113.74 14.42L113.74 14.42Q113.69 14.32 113.69 14.21L113.69 14.21L113.69 9.10L113.69 9.10Q113.69 8.71 113.55 8.50L113.55 8.50L113.55 8.50Q113.41 8.30 113.10 8.30L113.10 8.30L113.10 8.30Q113.02 8.30 112.93 8.33L112.93 8.33L112.93 8.33Q112.84 8.36 112.75 8.41L112.75 8.41L112.75 8.41Q112.66 8.46 112.59 8.51L112.59 8.51L112.59 8.51Q112.53 8.56 112.48 8.60L112.48 8.60L112.48 8.60Q112.53 8.86 112.53 9.17L112.53 9.17L112.53 14.21L112.53 14.21Q112.53 14.32 112.50 14.39L112.50 14.39L112.50 14.39Q112.46 14.45 112.42 14.48L112.42 14.48L112.42 14.48Q112.38 14.51 112.31 14.52L112.31 14.52L112.31 14.52Q112.25 14.53 112.19 14.53L112.19 14.53L111.75 14.53L111.75 14.53Q111.58 14.53 111.52 14.42L111.52 14.42L111.52 14.42Q111.47 14.32 111.47 14.21L111.47 14.21L111.47 9.10L111.47 9.10Q111.47 8.71 111.33 8.50L111.33 8.50L111.33 8.50Q111.19 8.30 110.89 8.30L110.89 8.30L110.89 8.30Q110.73 8.30 110.57 8.38L110.57 8.38L110.57 8.38Q110.41 8.47 110.31 8.57L110.31 8.57L110.31 13.57L110.31 13.57Q110.31 13.81 110.27 13.99L110.27 13.99L110.27 13.99Q110.23 14.16 110.11 14.28L110.11 14.28L110.11 14.28Q110.00 14.40 109.79 14.46L109.79 14.46L109.79 14.46Q109.59 14.53 109.26 14.53L109.26 14.53L106.33 14.53L106.33 14.53Q106.00 14.53 105.79 14.46L105.79 14.46L105.79 14.46Q105.59 14.40 105.47 14.29L105.47 14.29L105.47 14.29Q105.36 14.17 105.31 13.99L105.31 13.99L105.31 13.99Q105.27 13.82 105.27 13.58L105.27 13.58ZM122.51 14.53L118.86 14.53L118.86 14.53Q118.49 14.53 118.11 14.48L118.11 14.48L118.11 14.48Q117.74 14.43 117.40 14.32L117.40 14.32L117.40 14.32Q117.07 14.22 116.77 14.05L116.77 14.05L116.77 14.05Q116.48 13.88 116.26 13.62L116.26 13.62L116.26 13.62Q116.05 13.37 115.92 13.03L115.92 13.03L115.92 13.03Q115.80 12.69 115.80 12.24L115.80 12.24L115.80 12.24Q115.80 11.65 116.03 11.22L116.03 11.22L116.03 11.22Q116.25 10.80 116.63 10.52L116.63 10.52L116.63 10.52Q117.01 10.24 117.50 10.09L117.50 10.09L117.50 10.09Q118.00 9.94 118.52 9.90L118.52 9.90L118.52 9.43L118.52 9.43Q118.52 9.16 118.45 9.00L118.45 9.00L118.45 9.00Q118.38 8.85 118.28 8.77L118.28 8.77L118.28 8.77Q118.17 8.69 118.05 8.66L118.05 8.66L118.05 8.66Q117.92 8.64 117.80 8.64L117.80 8.64L117.80 8.64Q117.67 8.64 117.51 8.68L117.51 8.68L117.51 8.68Q117.36 8.72 117.22 8.78L117.22 8.78L117.22 8.78Q117.07 8.84 116.94 8.91L116.94 8.91L116.94 8.91Q116.81 8.98 116.72 9.03L116.72 9.03L116.72 9.03Q116.68 9.06 116.65 9.08L116.65 9.08L116.65 9.08Q116.61 9.10 116.58 9.10L116.58 9.10L116.58 9.10Q116.52 9.10 116.46 9.01L116.46 9.01L116.23 8.64L116.23 8.64Q116.20 8.59 116.20 8.54L116.20 8.54L116.20 8.54Q116.20 8.48 116.24 8.44L116.24 8.44L116.24 8.44Q116.29 8.40 116.33 8.37L116.33 8.37L116.33 8.37Q116.55 8.22 116.90 8.05L116.90 8.05L116.90 8.05Q117.25 7.89 117.68 7.76L117.68 7.76L117.68 7.76Q118.12 7.63 118.62 7.55L118.62 7.55L118.62 7.55Q119.13 7.46 119.67 7.46L119.67 7.46L119.67 7.46Q120.18 7.46 120.67 7.50L120.67 7.50L120.67 7.50Q121.16 7.53 121.59 7.65L121.59 7.65L121.59 7.65Q122.03 7.76 122.39 7.97L122.39 7.97L122.39 7.97Q122.75 8.18 123.01 8.52L123.01 8.52L123.01 8.52Q123.27 8.86 123.42 9.36L123.42 9.36L123.42 9.36Q123.56 9.86 123.56 10.55L123.56 10.55L123.56 13.60L123.56 13.60Q123.56 13.83 123.52 14.00L123.52 14.00L123.52 14.00Q123.48 14.18 123.36 14.29L123.36 14.29L123.36 14.29Q123.25 14.41 123.04 14.47L123.04 14.47L123.04 14.47Q122.83 14.53 122.51 14.53L122.51 14.53ZM118.52 13.65L118.52 10.77L118.52 10.77Q118.03 10.77 117.69 10.89L117.69 10.89L117.69 10.89Q117.36 11.01 117.15 11.22L117.15 11.22L117.15 11.22Q116.95 11.42 116.86 11.69L116.86 11.69L116.86 11.69Q116.77 11.96 116.77 12.25L116.77 12.25L116.77 12.25Q116.77 12.54 116.86 12.79L116.86 12.79L116.86 12.79Q116.95 13.05 117.15 13.24L117.15 13.24L117.15 13.24Q117.36 13.43 117.69 13.54L117.69 13.54L117.69 13.54Q118.03 13.65 118.52 13.65L118.52 13.65Z"></path></g><!----><!----><g data-v-423bf9ae="" id="44ca50ba-2b61-47c4-a058-890685419092" fill="#1A1626" transform="matrix(4.316546584895844,0,0,4.316546584895844,310.106055139168,119.57554319640205)"><path d="M6.86 13.94L6.86 12.98L2.45 9.66L2.45 9.60L6.86 6.29L6.86 5.33L1.71 9.31L1.71 9.97ZM16.21 14.42L17.00 14.42L22.99 3.84L22.20 3.84ZM35.71 13.94C36.89 13.94 37.76 13.44 38.47 12.63L37.98 12.11C37.34 12.82 36.67 13.20 35.76 13.20C33.85 13.20 32.65 11.61 32.65 9.13C32.65 6.66 33.85 5.11 35.78 5.11C36.60 5.11 37.25 5.47 37.74 6.01L38.22 5.46C37.72 4.89 36.88 4.37 35.78 4.37C33.42 4.37 31.78 6.20 31.78 9.13C31.78 12.11 33.42 13.94 35.71 13.94ZM50.40 13.96C52.18 13.96 53.69 12.59 53.69 10.22C53.69 7.83 52.18 6.47 50.40 6.47C48.62 6.47 47.11 7.83 47.11 10.22C47.11 12.59 48.62 13.96 50.40 13.96ZM50.40 13.27C48.97 13.27 47.95 12.04 47.95 10.22C47.95 8.40 48.97 7.15 50.40 7.15C51.83 7.15 52.85 8.40 52.85 10.22C52.85 12.04 51.83 13.27 50.40 13.27ZM65.48 13.96C66.36 13.96 67.21 13.38 67.79 12.74L67.83 12.74L67.91 13.78L68.59 13.78L68.59 3.57L67.79 3.57L67.79 6.03L67.82 7.46C67.13 6.83 66.49 6.47 65.65 6.47C64.01 6.47 62.51 7.92 62.51 10.22C62.51 12.61 63.69 13.96 65.48 13.96ZM65.60 13.26C64.19 13.26 63.35 12.05 63.35 10.22C63.35 8.48 64.41 7.17 65.76 7.17C66.42 7.17 67.07 7.45 67.79 8.16L67.79 12.00C67.09 12.82 66.35 13.26 65.60 13.26ZM81.59 4.76C82.04 4.76 82.42 4.41 82.42 3.95C82.42 3.44 82.04 3.11 81.59 3.11C81.14 3.11 80.77 3.44 80.77 3.95C80.77 4.41 81.14 4.76 81.59 4.76ZM78.61 13.78L84.91 13.78L84.91 13.09L82.15 13.09L82.15 6.64L78.61 6.64L78.61 7.32L81.35 7.32L81.35 13.09L78.61 13.09ZM93.81 13.78L94.63 13.78L94.63 8.71C95.54 7.67 96.15 7.18 97.05 7.18C98.31 7.18 98.83 7.92 98.83 9.44L98.83 13.78L99.64 13.78L99.64 9.32C99.64 7.42 98.88 6.47 97.24 6.47C96.18 6.47 95.38 7.10 94.63 7.98L94.57 7.98L94.49 6.64L93.81 6.64ZM111.78 17.01C113.65 17.01 114.79 15.90 114.79 13.78L114.79 6.64L114.13 6.64L114.04 7.45L114.02 7.45C113.39 6.86 112.67 6.47 111.86 6.47C110.18 6.47 108.71 7.87 108.71 10.12C108.71 12.45 109.90 13.75 111.65 13.75C112.56 13.75 113.44 13.20 114.00 12.57L113.99 13.69C113.97 15.78 113.18 16.34 111.78 16.34C111.05 16.34 110.25 16.13 109.54 15.09L109.03 15.53C109.94 16.72 110.85 17.01 111.78 17.01ZM111.80 13.06C110.39 13.06 109.55 11.89 109.55 10.11C109.55 8.43 110.63 7.17 111.94 7.17C112.62 7.17 113.27 7.45 113.99 8.16L113.99 11.83C113.27 12.61 112.53 13.06 111.80 13.06ZM124.74 13.94L129.91 9.97L129.91 9.31L124.74 5.33L124.74 6.29L129.15 9.60L129.15 9.66L124.74 12.98Z"></path></g></svg>